<?xml version="1.0" standalone="no"?>
<!DOCTYPE svg PUBLIC "-//W3C//DTD SVG 20010904//EN"
 "http://www.w3.org/TR/2001/REC-SVG-20010904/DTD/svg10.dtd">
<svg version="1.0" xmlns="http://www.w3.org/2000/svg"
 width="232.000000pt" height="113.000000pt" viewBox="0 0 232.000000 113.000000"
 preserveAspectRatio="xMidYMid meet">
<metadata>
Created by potrace 1.16, written by Peter Selinger 2001-2019
</metadata>
<g transform="translate(0.000000,113.000000) scale(0.100000,-0.100000)"
fill="#000000" stroke="none">
<path d="M140 270 c0 -73 3 -90 15 -90 9 0 15 9 15 24 0 20 6 24 42 29 47 6
68 27 68 68 0 38 -33 59 -92 59 l-48 0 0 -90z"/>
<path d="M360 270 c0 -73 3 -90 15 -90 9 0 15 9 15 25 0 35 43 35 66 0 9 -14
23 -25 30 -25 18 0 18 5 -2 36 -15 23 -15 26 0 43 42 47 3 101 -74 101 l-50 0
0 -90z"/>
<path d="M700 270 c0 -72 3 -90 14 -90 11 0 16 15 18 53 l3 52 24 -42 c14 -24
28 -43 32 -43 4 0 21 24 38 53 l31 52 0 -62 c0 -35 4 -63 10 -63 6 0 10 37 10
91 0 106 -9 111 -55 31 -16 -29 -32 -52 -35 -52 -3 0 -19 25 -35 55 -44 80
-55 73 -55 -35z"/>
<path d="M989 331 c-20 -20 -29 -39 -29 -61 0 -45 47 -90 94 -90 53 0 91 37
91 90 0 84 -95 121 -156 61z"/>
<path d="M1220 270 c0 -73 3 -90 15 -90 9 0 15 9 15 24 0 20 6 24 42 29 42 6
78 34 78 62 0 7 -9 24 -21 39 -18 22 -28 26 -75 26 l-54 0 0 -90z"/>
<path d="M2055 348 c-54 -31 -61 -93 -16 -139 61 -60 156 -23 156 61 0 34 -6
47 -28 66 -31 26 -78 31 -112 12z"/>
</g>
</svg>
